<svg xmlns="http://www.w3.org/2000/svg" width="25" height="25" viewBox="0 0 27.78 28.27"><defs><style>.a{fill:#202549;}</style></defs><title>Asset 1</title><path class="a" d="M5.38,10.1A4.79,4.79,0,0,1,10.1,5.38c1,0,1-1.53,0-1.5A6.32,6.32,0,0,0,3.88,10.1a.75.75,0,0,0,1.5,0Z"/><path class="a" d="M10.1,20.2A10.1,10.1,0,1,1,20.2,10.1,10.11,10.11,0,0,1,10.1,20.2Zm0-18.7a8.6,8.6,0,1,0,8.6,8.6A8.61,8.61,0,0,0,10.1,1.5Z"/><path class="a" d="M24,27.59l-6.67-6.87a12.61,12.61,0,0,0,3.22-3.13l6.63,6.82C29.15,26.49,26,29.68,24,27.59Z"/></svg>